<svg width="197" height="197" viewBox="0 0 197 197" fill="none" xmlns="http://www.w3.org/2000/svg">
<g clip-path="url(#clip0)">
<path d="M190.446 45.13C186.513 41.0102 181.083 38.5758 174.903 38.5758H143.818V38.2013C143.818 33.5197 141.945 29.0254 138.761 26.0292C135.578 22.8458 131.271 20.9731 126.589 20.9731H70.4106C65.5418 20.9731 61.2348 22.8458 58.0513 26.0292C54.8679 29.2127 52.9952 33.5197 52.9952 38.2013V38.5758H22.097C15.9173 38.5758 10.4867 41.0102 6.55418 45.13C2.62167 49.0625 0 54.6804 0 60.6728V153.929C0 160.109 2.43441 165.54 6.55418 169.472C10.4867 173.405 16.1046 176.026 22.097 176.026H174.903C181.083 176.026 186.513 173.592 190.446 169.472C194.378 165.54 197 159.922 197 153.929V60.6728C197 54.4931 194.566 49.0625 190.446 45.13ZM187.262 153.929H187.075C187.075 157.3 185.764 160.296 183.517 162.544C181.27 164.791 178.274 166.102 174.903 166.102H22.097C18.7262 166.102 15.73 164.791 13.4829 162.544C11.2357 160.296 9.92491 157.3 9.92491 153.929V60.6728C9.92491 57.3021 11.2357 54.3058 13.4829 52.0587C15.73 49.8116 18.7262 48.5007 22.097 48.5007H58.2386C61.0475 48.5007 63.2947 46.2536 63.2947 43.4446V38.014C63.2947 35.9541 64.0437 34.0815 65.3546 32.7707C66.6654 31.4598 68.538 30.7108 70.5979 30.7108H126.589C128.649 30.7108 130.522 31.4598 131.833 32.7707C133.144 34.0815 133.893 35.9541 133.893 38.014V43.4446C133.893 46.2536 136.14 48.5007 138.949 48.5007H175.09C178.461 48.5007 181.457 49.8116 183.704 52.0587C185.952 54.3058 187.262 57.3021 187.262 60.6728V153.929Z" fill="#CCDAFF"/>
<path d="M98.5006 61.2344C85.7667 61.2344 74.1565 66.4777 65.9169 74.7173C57.4901 83.1441 52.434 94.5671 52.434 107.301C52.434 120.035 57.6774 131.645 65.9169 139.885C74.3437 148.311 85.7667 153.367 98.5006 153.367C111.234 153.367 122.845 148.124 131.084 139.885C139.511 131.458 144.567 120.035 144.567 107.301C144.567 94.5671 139.324 82.9568 131.084 74.7173C122.845 66.4777 111.234 61.2344 98.5006 61.2344ZM123.968 132.956C117.414 139.323 108.425 143.443 98.5006 143.443C88.5757 143.443 79.5871 139.323 73.0329 132.956C66.4787 126.402 62.5462 117.413 62.5462 107.488C62.5462 97.5633 66.666 88.5747 73.0329 82.0205C79.5871 75.4663 88.5757 71.5338 98.5006 71.5338C108.425 71.5338 117.414 75.6536 123.968 82.0205C130.522 88.5747 134.455 97.5633 134.455 107.488C134.642 117.413 130.522 126.402 123.968 132.956Z" fill="#CCDAFF"/>
<path d="M165.168 79.3991C170.236 79.3991 174.344 75.2909 174.344 70.2232C174.344 65.1555 170.236 61.0474 165.168 61.0474C160.1 61.0474 155.992 65.1555 155.992 70.2232C155.992 75.2909 160.1 79.3991 165.168 79.3991Z" fill="#CCDAFF"/>
</g>
<defs>
<clipPath id="clip0">
<rect width="197" height="197" fill="white"/>
</clipPath>
</defs>
</svg>
